<svg xmlns="http://www.w3.org/2000/svg" viewBox="0 0 512 512">
  <rect width="512" height="512" rx="110" fill="#0e0e1a"/>
  <circle cx="256" cy="256" r="180" fill="none" stroke="#3d2a5a" stroke-width="1.5" opacity="0.6"/>
  <circle cx="256" cy="256" r="120" fill="none" stroke="#5a3a7a" stroke-width="1" opacity="0.4"/>
  <!-- Moon -->
  <path d="M256 96 C200 96 160 140 160 196 C160 252 200 296 256 296 C230 296 208 276 208 252 C208 228 228 208 256 208 C284 208 304 188 304 164 C304 128 284 96 256 96Z" fill="#c9a0dc" opacity="0.9"/>
  <!-- Stars -->
  <circle cx="320" cy="150" r="4" fill="#e8d5b7" opacity="0.8"/>
  <circle cx="180" cy="200" r="3" fill="#e8d5b7" opacity="0.6"/>
  <circle cx="350" cy="280" r="2.5" fill="#e8d5b7" opacity="0.7"/>
  <circle cx="150" cy="320" r="2" fill="#e8d5b7" opacity="0.5"/>
  <circle cx="380" cy="180" r="2" fill="#e8d5b7" opacity="0.6"/>
  <!-- Flower petals -->
  <ellipse cx="256" cy="370" rx="18" ry="30" fill="#f4a7b9" opacity="0.85" transform="rotate(0 256 400)"/>
  <ellipse cx="256" cy="370" rx="18" ry="30" fill="#f4a7b9" opacity="0.75" transform="rotate(60 256 400)"/>
  <ellipse cx="256" cy="370" rx="18" ry="30" fill="#f4a7b9" opacity="0.75" transform="rotate(120 256 400)"/>
  <ellipse cx="256" cy="370" rx="18" ry="30" fill="#f9c6d0" opacity="0.7" transform="rotate(30 256 400)"/>
  <ellipse cx="256" cy="370" rx="18" ry="30" fill="#f9c6d0" opacity="0.7" transform="rotate(90 256 400)"/>
  <ellipse cx="256" cy="370" rx="18" ry="30" fill="#f9c6d0" opacity="0.7" transform="rotate(150 256 400)"/>
  <circle cx="256" cy="400" r="10" fill="#ffe4ed"/>
</svg>
